<svg width="446" height="446" viewBox="0 0 446 446" fill="none" xmlns="http://www.w3.org/2000/svg">
<circle cx="223" cy="223" r="223" fill="#EBEDEC"/>
<path d="M95.5 172.5L209 216.062C186.5 241.063 165 258.063 148.5 274.062V333.062L238.5 263.062L243.5 259.562C246.339 257.746 249.5 257.563 250 259.562C256.5 295.563 264 333.063 272.5 346.062C274 348.5 281 346.5 282 343.062L348 115.062C349 110.562 348 109.063 343 110.562L95 171.44C94.6127 171.553 94.5 172 95.5 172.5Z" fill="#86E8D1"/>
<path d="M148.5 333.062V274.062L138.5 278.562V337.062L148.5 333.062Z" fill="#1C3839"/>
<path d="M272.5 346.062C264 333.063 256.5 295.563 250 259.562C249.5 257.563 246.339 257.746 243.5 259.562L238.5 263.062L257 341C258.5 346 270.5 345 272.5 346.062Z" fill="#1C3839"/>
<path d="M148.5 274.062C165 258.063 186.5 241.063 209 216.062L197.5 221.062L138.5 278.562L148.5 274.062Z" fill="#1C3839"/>
<path d="M209 216.062L95.5 172.5C94.5 172 94.6127 171.553 95 171.44L86 174.062C88.7214 176.513 90.3912 177.819 94.5 179.562L197.5 221.062L209 216.062Z" fill="#183835"/>
</svg>
