<svg width="1335" height="479" viewBox="0 0 1335 479" fill="none" xmlns="http://www.w3.org/2000/svg">
<path fill-rule="evenodd" clip-rule="evenodd" d="M538.999 459.5V468H607.5L609.5 264.5C609.5 208 554.499 172.5 474.999 172.5H451.999C406.499 172.5 380.499 179.5 351.999 187.5L370.499 242.5C385.748 237.863 394.499 235.634 411.999 232.5C445.499 226.5 475.499 228 502.999 232.5C528.999 236.755 545.999 251.5 545.999 265V292.5C528.667 291.028 514.733 290.067 501.528 289.494C483.712 288.722 467.221 288.657 445.5 289C407.619 289 381.252 293.108 362.999 302.5C329.935 319.514 323.499 350.395 323.499 381C323.499 422.484 348.669 456.722 413.999 464.729C423.472 465.89 433.79 466.5 444.999 466.5C482.999 466.5 503.999 466.5 538.999 459.5ZM437.499 411C399.999 411 388.499 391 388.499 375.5C388.499 360 401.499 339.5 437.499 339.5H535.5H545.999L544.499 411H534H437.499Z" fill="#1E2530"/>
<path d="M413.999 464.729C348.669 456.722 323.499 422.484 323.499 381C323.499 350.395 329.935 319.514 362.999 302.5C293.5 326 283 464.729 413.999 464.729Z" fill="#1E2530"/>
<path d="M501.528 289.494C514.733 290.067 528.667 291.028 545.999 292.5V265C545.999 251.5 528.999 236.755 502.999 232.5C475.499 228 445.499 226.5 411.999 232.5C394.499 235.634 385.748 237.863 370.499 242.5C416 231.816 466 230.5 502.999 239C526.824 246.028 534.5 262 534.5 271V287C526.415 289.938 516.246 289.987 501.528 289.494Z" fill="#1E2530"/>
<path d="M544.499 411L545.999 339.5H535.5H437.499C478.773 340.208 507.061 339.758 534 347V407.5C510.125 410.913 479.044 410.281 437.499 411H534H544.499Z" fill="#1E2530"/>
<path d="M289.997 434.624L254.519 387.244C253.524 385.746 250.422 386.385 248.544 387.244L248.211 387.397C226.138 397.495 205.362 407 178.497 407C116.751 407 78.9971 359.938 78.9971 314.5C78.9971 257.781 119.766 220.5 181.997 220.5C198.904 220.5 232.497 226.5 252.997 246C270.497 227.5 275.997 220.5 289.997 202.521C252.997 173.5 219.997 160 155.997 160C133.974 160 86.8939 167.661 52.4971 200C27.5437 223.461 9.99707 260.383 9.99707 314.5C9.99707 443.215 141.827 466 167.5 466H188.997C238.294 466 280.038 442.614 289.997 434.624Z" fill="#1E2530"/>
<path d="M167.5 466C141.827 466 9.99707 443.215 9.99707 314.5C9.99707 260.383 27.5437 223.461 52.4971 200C21.9971 226.5 0 265 0 314.5C0 407 68 466 167.5 466Z" fill="#1E2530"/>
<path d="M1142 475.563H1202L1205 226.063C1205 223.062 1200 222.562 1197 224.063L1142.5 257.063L1142.25 366.313L1142 475.563Z" fill="#1E2530"/>
<path d="M1142 475.563L1142.25 366.313L1142.5 257.063C1139 259.563 1133 263.063 1133 267.563L1131.5 478.063L1142 475.563Z" fill="#1E2530"/>
<path d="M1202 475.563H1142L1131.5 478.063H1192.5L1202 475.563Z" fill="#1E2530"/>
<path d="M1080.5 61.5623L1195 106.062C1172.5 131.063 1151 148.063 1134.5 164.062V223.062L1224.5 153.062L1229.5 149.562C1232.34 147.745 1235.5 147.563 1236 149.562C1242.5 185.563 1250 223.063 1258.5 236.062C1259 237.562 1266.5 236.062 1268 233.062L1334 5.06234C1335 0.562344 1334 -0.937382 1329 0.56234L1080.5 61.5623Z" fill="#86E8D1"/>
<path d="M1134.5 223.062V164.062L1124.5 168.562V227.062L1134.5 223.062Z" fill="#1C3839"/>
<path d="M1258.5 236.062C1250 223.063 1242.5 185.563 1236 149.562C1235.5 147.563 1232.34 147.745 1229.5 149.562L1224.5 153.062L1243.5 232.562C1245 237.562 1257.5 237.562 1258.5 236.062Z" fill="#1C3839"/>
<path d="M1134.5 164.062C1151 148.063 1172.5 131.063 1195 106.062L1183.5 111.062L1124.5 168.562L1134.5 164.062Z" fill="#1C3839"/>
<path d="M1195 106.062L1080.5 61.5623L1072 64.0623L1080.5 69.5623L1183.5 111.062L1195 106.062Z" fill="#183835"/>
<path fill-rule="evenodd" clip-rule="evenodd" d="M1075 459.5L1052 413.5C1013.58 421.971 974.79 424.95 943.5 421.109C923.077 418.602 905.848 413.188 894 404.5C872.983 389.087 865.5 375 864 351.5L1088.5 357V314C1088.5 245 1024.5 184.5 950.5 184.5C909.525 184.5 876.491 195.385 852 214.29C818.514 240.14 801 280.983 801 329.5C801 429 880 478 950.5 478C1004.5 478 1049.5 473 1075 459.5ZM1019.5 306.627L865 303.5C871.135 273.976 891.971 252.097 922.999 243.5C932.433 240.886 942.809 239.5 954 239.5C1002 239.5 1032 283 1032 307L1019.5 306.627Z" fill="#1E2530"/>
<path d="M950.5 478C880 478 801 429 801 329.5C801 280.983 818.514 240.14 852 214.29C816.5 235.5 790 284.5 790 329.5C790 421 840.5 478 950.5 478Z" fill="#1E2530"/>
<path d="M1019.5 306.627L1032 307C1032 283 1002 239.5 954 239.5C942.809 239.5 932.433 240.886 922.999 243.5C964.5 243.5 1001.09 255.5 1019.5 306.627Z" fill="#1E2530"/>
<path d="M864 351.5C865.5 375 872.983 389.087 894 404.5C905.848 413.188 923.077 418.602 943.5 421.109C896.321 413.949 868.5 383 868.5 357.5L1076.5 362C1081.5 362 1088.5 359.5 1088.5 357L864 351.5Z" fill="#1E2530"/>
<path d="M740.5 468.5L675.5 467.5L665 470L738 470.5L740.5 468.5Z" fill="#1E2530"/>
<path d="M675.5 467.5L740.5 468.5L745.5 53.0003C745.5 50.0002 744 48 738.5 50.0003L677.5 68.5L675.5 467.5Z" fill="#1E2530"/>
<path d="M675.5 467.5L677.5 68.5C672.5 70.5 670.5 74.5 668.5 78L665 470L675.5 467.5Z" fill="#1E2530"/>
</svg>
